<mxfile host="app.diagrams.net" modified="2021-08-14T12:26:28.724Z" agent="5.0 (Windows NT 10.0; Win64; x64) AppleWebKit/537.36 (KHTML, like Gecko) Chrome/92.0.4515.131 Safari/537.36" etag="ur0Exnte79fomchEb6sW" version="14.9.6" type="github">
  <diagram id="Zl01GysUVRrBJq3q0-Fd" name="Page-1">
    <mxGraphModel dx="865" dy="483" grid="1" gridSize="10" guides="1" tooltips="1" connect="1" arrows="1" fold="1" page="1" pageScale="1" pageWidth="827" pageHeight="1169" math="0" shadow="0">
      <root>
        <mxCell id="0" />
        <mxCell id="1" parent="0" />
        <mxCell id="w90_zhHVsFdHdV3SLVgs-45" value="" style="endArrow=classic;html=1;" edge="1" parent="1">
          <mxGeometry x="10" y="20" width="50" height="50" as="geometry">
            <mxPoint x="179.5" y="230" as="sourcePoint" />
            <mxPoint x="180" y="250" as="targetPoint" />
            <Array as="points">
              <mxPoint x="180" y="240" />
            </Array>
          </mxGeometry>
        </mxCell>
        <mxCell id="w90_zhHVsFdHdV3SLVgs-46" value="Get Massage Registration Done" style="ellipse;whiteSpace=wrap;html=1;" vertex="1" parent="1">
          <mxGeometry x="110" y="310" width="120" height="40" as="geometry" />
        </mxCell>
        <mxCell id="w90_zhHVsFdHdV3SLVgs-47" value="" style="endArrow=classic;html=1;" edge="1" parent="1">
          <mxGeometry x="10" y="10" width="50" height="50" as="geometry">
            <mxPoint x="179.5" y="290" as="sourcePoint" />
            <mxPoint x="180" y="310" as="targetPoint" />
            <Array as="points">
              <mxPoint x="180" y="300" />
            </Array>
          </mxGeometry>
        </mxCell>
        <mxCell id="w90_zhHVsFdHdV3SLVgs-48" value="Enter Submit" style="ellipse;whiteSpace=wrap;html=1;" vertex="1" parent="1">
          <mxGeometry x="140" y="250" width="80" height="40" as="geometry" />
        </mxCell>
        <mxCell id="w90_zhHVsFdHdV3SLVgs-49" value="" style="endArrow=classic;html=1;exitX=1;exitY=0.5;exitDx=0;exitDy=0;" edge="1" parent="1" source="w90_zhHVsFdHdV3SLVgs-46">
          <mxGeometry x="10" y="40" width="50" height="50" as="geometry">
            <mxPoint x="240" y="320" as="sourcePoint" />
            <mxPoint x="420" y="60" as="targetPoint" />
            <Array as="points">
              <mxPoint x="250" y="330" />
              <mxPoint x="250" y="310" />
              <mxPoint x="360" y="310" />
              <mxPoint x="360" y="230" />
              <mxPoint x="360" y="60" />
            </Array>
          </mxGeometry>
        </mxCell>
        <mxCell id="w90_zhHVsFdHdV3SLVgs-50" value="Login" style="ellipse;whiteSpace=wrap;html=1;" vertex="1" parent="1">
          <mxGeometry x="425" y="40" width="60" height="40" as="geometry" />
        </mxCell>
        <mxCell id="w90_zhHVsFdHdV3SLVgs-51" value="" style="endArrow=classic;html=1;" edge="1" parent="1">
          <mxGeometry x="10" y="-10" width="50" height="50" as="geometry">
            <mxPoint x="454.5" y="80" as="sourcePoint" />
            <mxPoint x="455" y="100" as="targetPoint" />
            <Array as="points">
              <mxPoint x="455" y="90" />
            </Array>
          </mxGeometry>
        </mxCell>
        <mxCell id="w90_zhHVsFdHdV3SLVgs-52" value="Enter Login / Registration" style="rounded=1;whiteSpace=wrap;html=1;" vertex="1" parent="1">
          <mxGeometry x="385.5" y="100" width="140" height="30" as="geometry" />
        </mxCell>
        <mxCell id="w90_zhHVsFdHdV3SLVgs-53" value="" style="endArrow=classic;html=1;" edge="1" parent="1">
          <mxGeometry x="10" y="-20" width="50" height="50" as="geometry">
            <mxPoint x="454.5" y="130" as="sourcePoint" />
            <mxPoint x="455" y="150" as="targetPoint" />
            <Array as="points">
              <mxPoint x="455" y="140" />
            </Array>
          </mxGeometry>
        </mxCell>
        <mxCell id="w90_zhHVsFdHdV3SLVgs-55" value="Enter Email" style="ellipse;whiteSpace=wrap;html=1;" vertex="1" parent="1">
          <mxGeometry x="365" y="170" width="60" height="40" as="geometry" />
        </mxCell>
        <mxCell id="w90_zhHVsFdHdV3SLVgs-56" value="Enter Password" style="ellipse;whiteSpace=wrap;html=1;" vertex="1" parent="1">
          <mxGeometry x="520" y="170" width="60" height="40" as="geometry" />
        </mxCell>
        <mxCell id="w90_zhHVsFdHdV3SLVgs-58" value="" style="endArrow=classic;html=1;" edge="1" parent="1">
          <mxGeometry x="36" y="-27" width="50" height="50" as="geometry">
            <mxPoint x="546" y="153" as="sourcePoint" />
            <mxPoint x="547" y="173" as="targetPoint" />
            <Array as="points">
              <mxPoint x="546.5" y="163" />
            </Array>
          </mxGeometry>
        </mxCell>
        <mxCell id="w90_zhHVsFdHdV3SLVgs-60" value="" style="endArrow=none;html=1;entryX=0.5;entryY=1;entryDx=0;entryDy=0;" edge="1" parent="1" target="w90_zhHVsFdHdV3SLVgs-55">
          <mxGeometry x="10" y="40" width="50" height="50" as="geometry">
            <mxPoint x="395" y="300" as="sourcePoint" />
            <mxPoint x="440" y="250" as="targetPoint" />
          </mxGeometry>
        </mxCell>
        <mxCell id="w90_zhHVsFdHdV3SLVgs-61" value="" style="endArrow=none;html=1;entryX=0.5;entryY=1;entryDx=0;entryDy=0;" edge="1" parent="1" target="w90_zhHVsFdHdV3SLVgs-56">
          <mxGeometry x="10" y="40" width="50" height="50" as="geometry">
            <mxPoint x="550" y="300" as="sourcePoint" />
            <mxPoint x="440" y="250" as="targetPoint" />
          </mxGeometry>
        </mxCell>
        <mxCell id="w90_zhHVsFdHdV3SLVgs-62" value="" style="endArrow=classic;html=1;" edge="1" parent="1">
          <mxGeometry x="10" y="40" width="50" height="50" as="geometry">
            <mxPoint x="454.5" y="300" as="sourcePoint" />
            <mxPoint x="455" y="310" as="targetPoint" />
            <Array as="points">
              <mxPoint x="455" y="310" />
            </Array>
          </mxGeometry>
        </mxCell>
        <mxCell id="w90_zhHVsFdHdV3SLVgs-63" value="Invalid" style="rhombus;whiteSpace=wrap;html=1;" vertex="1" parent="1">
          <mxGeometry x="433" y="320" width="45" height="30" as="geometry" />
        </mxCell>
        <mxCell id="w90_zhHVsFdHdV3SLVgs-64" value="" style="endArrow=classic;html=1;exitX=0;exitY=0.5;exitDx=0;exitDy=0;entryX=-0.07;entryY=0.38;entryDx=0;entryDy=0;entryPerimeter=0;" edge="1" parent="1" source="w90_zhHVsFdHdV3SLVgs-63" target="w90_zhHVsFdHdV3SLVgs-66">
          <mxGeometry x="10" y="40" width="50" height="50" as="geometry">
            <mxPoint x="390" y="400" as="sourcePoint" />
            <mxPoint x="400" y="350" as="targetPoint" />
          </mxGeometry>
        </mxCell>
        <mxCell id="w90_zhHVsFdHdV3SLVgs-65" value="Go to admin Dashboard" style="ellipse;whiteSpace=wrap;html=1;" vertex="1" parent="1">
          <mxGeometry x="304" y="315" width="89" height="30" as="geometry" />
        </mxCell>
        <mxCell id="w90_zhHVsFdHdV3SLVgs-66" value="Yes" style="text;html=1;align=center;verticalAlign=middle;resizable=0;points=[];autosize=1;strokeColor=none;" vertex="1" parent="1">
          <mxGeometry x="393" y="325" width="40" height="20" as="geometry" />
        </mxCell>
        <mxCell id="w90_zhHVsFdHdV3SLVgs-67" value="" style="endArrow=classic;html=1;entryX=0;entryY=0.5;entryDx=0;entryDy=0;exitX=0.011;exitY=0.167;exitDx=0;exitDy=0;exitPerimeter=0;" edge="1" parent="1" target="w90_zhHVsFdHdV3SLVgs-69" source="w90_zhHVsFdHdV3SLVgs-68">
          <mxGeometry x="10" y="32" width="50" height="50" as="geometry">
            <mxPoint x="477" y="342" as="sourcePoint" />
            <mxPoint x="570" y="342" as="targetPoint" />
          </mxGeometry>
        </mxCell>
        <mxCell id="w90_zhHVsFdHdV3SLVgs-68" value="No" style="text;html=1;align=center;verticalAlign=middle;resizable=0;points=[];autosize=1;strokeColor=none;" vertex="1" parent="1">
          <mxGeometry x="478" y="330" width="30" height="20" as="geometry" />
        </mxCell>
        <mxCell id="w90_zhHVsFdHdV3SLVgs-69" value="Get Login Fail" style="ellipse;whiteSpace=wrap;html=1;" vertex="1" parent="1">
          <mxGeometry x="550" y="310" width="60" height="40" as="geometry" />
        </mxCell>
        <mxCell id="w90_zhHVsFdHdV3SLVgs-70" value="" style="endArrow=classic;html=1;entryX=1;entryY=0.5;entryDx=0;entryDy=0;exitX=0.5;exitY=0;exitDx=0;exitDy=0;" edge="1" parent="1" target="w90_zhHVsFdHdV3SLVgs-52" source="w90_zhHVsFdHdV3SLVgs-71">
          <mxGeometry x="10" y="40" width="50" height="50" as="geometry">
            <mxPoint x="600" y="260" as="sourcePoint" />
            <mxPoint x="440" y="350" as="targetPoint" />
            <Array as="points">
              <mxPoint x="590" y="175" />
            </Array>
          </mxGeometry>
        </mxCell>
        <mxCell id="w90_zhHVsFdHdV3SLVgs-71" value="Registration Again" style="ellipse;whiteSpace=wrap;html=1;" vertex="1" parent="1">
          <mxGeometry x="557.5" y="220" width="60" height="30" as="geometry" />
        </mxCell>
        <mxCell id="w90_zhHVsFdHdV3SLVgs-72" value="" style="endArrow=classic;html=1;exitX=0.5;exitY=0;exitDx=0;exitDy=0;entryX=0.5;entryY=1;entryDx=0;entryDy=0;" edge="1" parent="1" source="w90_zhHVsFdHdV3SLVgs-69" target="w90_zhHVsFdHdV3SLVgs-71">
          <mxGeometry x="10" y="40" width="50" height="50" as="geometry">
            <mxPoint x="390" y="400" as="sourcePoint" />
            <mxPoint x="440" y="350" as="targetPoint" />
          </mxGeometry>
        </mxCell>
        <mxCell id="w90_zhHVsFdHdV3SLVgs-74" value="Registration" style="rounded=1;whiteSpace=wrap;html=1;" vertex="1" parent="1">
          <mxGeometry x="139" y="40" width="80" height="30" as="geometry" />
        </mxCell>
        <mxCell id="w90_zhHVsFdHdV3SLVgs-75" value="Enter Registration Info" style="rounded=1;whiteSpace=wrap;html=1;" vertex="1" parent="1">
          <mxGeometry x="120" y="90" width="120" height="30" as="geometry" />
        </mxCell>
        <mxCell id="w90_zhHVsFdHdV3SLVgs-76" value="" style="endArrow=classic;html=1;" edge="1" parent="1">
          <mxGeometry x="10" y="35.14218009478673" width="50" height="58.29383886255924" as="geometry">
            <mxPoint x="179.5" y="70.11848341232228" as="sourcePoint" />
            <mxPoint x="180" y="90" as="targetPoint" />
            <Array as="points">
              <mxPoint x="180" y="81.77725118483413" />
            </Array>
          </mxGeometry>
        </mxCell>
        <mxCell id="w90_zhHVsFdHdV3SLVgs-77" value="" style="endArrow=classic;html=1;" edge="1" parent="1">
          <mxGeometry x="10" y="15.07218009478673" width="50" height="58.29383886255924" as="geometry">
            <mxPoint x="179.5" y="120.00109004739338" as="sourcePoint" />
            <mxPoint x="180" y="139.93" as="targetPoint" />
            <Array as="points">
              <mxPoint x="180" y="131.65985781990523" />
            </Array>
          </mxGeometry>
        </mxCell>
        <mxCell id="w90_zhHVsFdHdV3SLVgs-84" value="Name" style="ellipse;whiteSpace=wrap;html=1;" vertex="1" parent="1">
          <mxGeometry x="10" y="170.00369668246447" width="60" height="34.976303317535546" as="geometry" />
        </mxCell>
        <mxCell id="w90_zhHVsFdHdV3SLVgs-85" value="Email" style="ellipse;whiteSpace=wrap;html=1;" vertex="1" parent="1">
          <mxGeometry x="79" y="170.00369668246447" width="60" height="34.976303317535546" as="geometry" />
        </mxCell>
        <mxCell id="w90_zhHVsFdHdV3SLVgs-86" value="Phone" style="ellipse;whiteSpace=wrap;html=1;" vertex="1" parent="1">
          <mxGeometry x="149" y="170.00369668246447" width="60" height="34.976303317535546" as="geometry" />
        </mxCell>
        <mxCell id="w90_zhHVsFdHdV3SLVgs-87" value="Address" style="ellipse;whiteSpace=wrap;html=1;" vertex="1" parent="1">
          <mxGeometry x="220" y="170.00369668246447" width="60" height="34.976303317535546" as="geometry" />
        </mxCell>
        <mxCell id="w90_zhHVsFdHdV3SLVgs-88" value="Password" style="ellipse;whiteSpace=wrap;html=1;" vertex="1" parent="1">
          <mxGeometry x="290" y="170.00369668246447" width="60" height="34.976303317535546" as="geometry" />
        </mxCell>
        <mxCell id="w90_zhHVsFdHdV3SLVgs-89" value="" style="html=1;verticalAlign=bottom;startArrow=circle;startFill=1;endArrow=open;startSize=6;endSize=8;" edge="1" parent="1">
          <mxGeometry x="10" y="9" width="80" as="geometry">
            <mxPoint x="185" y="9" as="sourcePoint" />
            <mxPoint x="185" y="40" as="targetPoint" />
          </mxGeometry>
        </mxCell>
        <mxCell id="w90_zhHVsFdHdV3SLVgs-90" value="" style="shape=line;html=1;strokeWidth=6;" vertex="1" parent="1">
          <mxGeometry x="40" y="140" width="280" height="10" as="geometry" />
        </mxCell>
        <mxCell id="w90_zhHVsFdHdV3SLVgs-94" value="" style="endArrow=classic;html=1;" edge="1" parent="1">
          <mxGeometry x="10" y="2.092180094786734" width="50" height="58.29383886255924" as="geometry">
            <mxPoint x="40" y="141.99739336492888" as="sourcePoint" />
            <mxPoint x="41" y="166.95" as="targetPoint" />
            <Array as="points">
              <mxPoint x="40.5" y="153.6561611374408" />
            </Array>
          </mxGeometry>
        </mxCell>
        <mxCell id="w90_zhHVsFdHdV3SLVgs-95" value="" style="endArrow=classic;html=1;" edge="1" parent="1">
          <mxGeometry x="81.5" y="2.092180094786741" width="50" height="58.29383886255924" as="geometry">
            <mxPoint x="111.5" y="141.99739336492888" as="sourcePoint" />
            <mxPoint x="112.5" y="166.95" as="targetPoint" />
            <Array as="points">
              <mxPoint x="112" y="153.6561611374408" />
            </Array>
          </mxGeometry>
        </mxCell>
        <mxCell id="w90_zhHVsFdHdV3SLVgs-96" value="" style="endArrow=classic;html=1;" edge="1" parent="1">
          <mxGeometry x="149.5" y="0.09218009478674105" width="50" height="58.29383886255924" as="geometry">
            <mxPoint x="179.5" y="139.99739336492888" as="sourcePoint" />
            <mxPoint x="180.5" y="164.95" as="targetPoint" />
            <Array as="points">
              <mxPoint x="180" y="151.6561611374408" />
            </Array>
          </mxGeometry>
        </mxCell>
        <mxCell id="w90_zhHVsFdHdV3SLVgs-97" value="" style="endArrow=classic;html=1;" edge="1" parent="1">
          <mxGeometry x="218.5" y="2.092180094786741" width="50" height="58.29383886255924" as="geometry">
            <mxPoint x="248.5" y="141.99739336492888" as="sourcePoint" />
            <mxPoint x="249.5" y="166.95" as="targetPoint" />
            <Array as="points">
              <mxPoint x="249" y="153.6561611374408" />
            </Array>
          </mxGeometry>
        </mxCell>
        <mxCell id="w90_zhHVsFdHdV3SLVgs-98" value="" style="endArrow=classic;html=1;" edge="1" parent="1">
          <mxGeometry x="289" y="1.092180094786741" width="50" height="58.29383886255924" as="geometry">
            <mxPoint x="319" y="140.99739336492888" as="sourcePoint" />
            <mxPoint x="320" y="165.95" as="targetPoint" />
            <Array as="points">
              <mxPoint x="319.5" y="152.6561611374408" />
            </Array>
          </mxGeometry>
        </mxCell>
        <mxCell id="w90_zhHVsFdHdV3SLVgs-100" value="" style="endArrow=classic;html=1;" edge="1" parent="1">
          <mxGeometry x="10" y="65.07218009478675" width="50" height="58.29383886255924" as="geometry">
            <mxPoint x="40" y="204.9773933649289" as="sourcePoint" />
            <mxPoint x="41" y="230" as="targetPoint" />
            <Array as="points">
              <mxPoint x="40.5" y="216.63616113744075" />
            </Array>
          </mxGeometry>
        </mxCell>
        <mxCell id="w90_zhHVsFdHdV3SLVgs-101" value="" style="endArrow=classic;html=1;" edge="1" parent="1">
          <mxGeometry x="78.5" y="65.07218009478675" width="50" height="58.29383886255924" as="geometry">
            <mxPoint x="108.5" y="204.97739336492896" as="sourcePoint" />
            <mxPoint x="109.5" y="230" as="targetPoint" />
            <Array as="points">
              <mxPoint x="109" y="216.63616113744075" />
            </Array>
          </mxGeometry>
        </mxCell>
        <mxCell id="w90_zhHVsFdHdV3SLVgs-102" value="" style="endArrow=classic;html=1;" edge="1" parent="1">
          <mxGeometry x="148.5" y="65.07218009478675" width="50" height="58.29383886255924" as="geometry">
            <mxPoint x="178.5" y="204.97739336492896" as="sourcePoint" />
            <mxPoint x="179.5" y="230" as="targetPoint" />
            <Array as="points">
              <mxPoint x="179" y="216.63616113744075" />
            </Array>
          </mxGeometry>
        </mxCell>
        <mxCell id="w90_zhHVsFdHdV3SLVgs-103" value="" style="endArrow=classic;html=1;" edge="1" parent="1">
          <mxGeometry x="219.5" y="65.07218009478675" width="50" height="58.29383886255924" as="geometry">
            <mxPoint x="249.5" y="204.97739336492896" as="sourcePoint" />
            <mxPoint x="250.5" y="230" as="targetPoint" />
            <Array as="points">
              <mxPoint x="250" y="216.63616113744075" />
            </Array>
          </mxGeometry>
        </mxCell>
        <mxCell id="w90_zhHVsFdHdV3SLVgs-104" value="" style="endArrow=classic;html=1;" edge="1" parent="1">
          <mxGeometry x="289" y="65.07218009478675" width="50" height="58.29383886255924" as="geometry">
            <mxPoint x="319" y="204.97739336492896" as="sourcePoint" />
            <mxPoint x="320" y="230" as="targetPoint" />
            <Array as="points">
              <mxPoint x="319.5" y="216.63616113744075" />
            </Array>
          </mxGeometry>
        </mxCell>
        <mxCell id="w90_zhHVsFdHdV3SLVgs-105" value="" style="shape=line;html=1;strokeWidth=6;" vertex="1" parent="1">
          <mxGeometry x="39" y="230" width="280" height="10" as="geometry" />
        </mxCell>
        <mxCell id="w90_zhHVsFdHdV3SLVgs-106" value="" style="shape=line;html=1;strokeWidth=6;" vertex="1" parent="1">
          <mxGeometry x="380" y="150" width="170" height="10" as="geometry" />
        </mxCell>
        <mxCell id="w90_zhHVsFdHdV3SLVgs-107" value="" style="endArrow=classic;html=1;" edge="1" parent="1">
          <mxGeometry x="-128" y="-28" width="50" height="50" as="geometry">
            <mxPoint x="382" y="152" as="sourcePoint" />
            <mxPoint x="383" y="172" as="targetPoint" />
            <Array as="points">
              <mxPoint x="382.5" y="162" />
            </Array>
          </mxGeometry>
        </mxCell>
        <mxCell id="w90_zhHVsFdHdV3SLVgs-108" value="" style="shape=line;html=1;strokeWidth=6;" vertex="1" parent="1">
          <mxGeometry x="387.5" y="295" width="170" height="10" as="geometry" />
        </mxCell>
        <mxCell id="w90_zhHVsFdHdV3SLVgs-109" value="" style="endArrow=classic;html=1;" edge="1" parent="1">
          <mxGeometry x="-55.5" y="120" width="50" height="50" as="geometry">
            <mxPoint x="454.5" y="300" as="sourcePoint" />
            <mxPoint x="455.5" y="320" as="targetPoint" />
            <Array as="points">
              <mxPoint x="455" y="310" />
            </Array>
          </mxGeometry>
        </mxCell>
        <mxCell id="w90_zhHVsFdHdV3SLVgs-115" value="" style="shape=line;html=1;strokeWidth=6;" vertex="1" parent="1">
          <mxGeometry x="24" y="360" width="766" height="10" as="geometry" />
        </mxCell>
        <mxCell id="w90_zhHVsFdHdV3SLVgs-116" value="" style="endArrow=classic;html=1;" edge="1" parent="1">
          <mxGeometry x="-418.5" y="218" width="50" height="50" as="geometry">
            <mxPoint x="26" y="368" as="sourcePoint" />
            <mxPoint x="26.5" y="388" as="targetPoint" />
            <Array as="points">
              <mxPoint x="26.5" y="378" />
            </Array>
          </mxGeometry>
        </mxCell>
        <mxCell id="w90_zhHVsFdHdV3SLVgs-117" value="" style="endArrow=classic;html=1;" edge="1" parent="1">
          <mxGeometry x="-344.5" y="220" width="50" height="50" as="geometry">
            <mxPoint x="100.00000000000011" y="370" as="sourcePoint" />
            <mxPoint x="100.5" y="390.0000000000001" as="targetPoint" />
            <Array as="points">
              <mxPoint x="100.5" y="380" />
            </Array>
          </mxGeometry>
        </mxCell>
        <mxCell id="w90_zhHVsFdHdV3SLVgs-118" value="" style="endArrow=classic;html=1;" edge="1" parent="1">
          <mxGeometry x="-284.5" y="220" width="50" height="50" as="geometry">
            <mxPoint x="160.0000000000001" y="370" as="sourcePoint" />
            <mxPoint x="160.5" y="390.0000000000001" as="targetPoint" />
            <Array as="points">
              <mxPoint x="160.5" y="380" />
            </Array>
          </mxGeometry>
        </mxCell>
        <mxCell id="w90_zhHVsFdHdV3SLVgs-119" value="" style="endArrow=classic;html=1;" edge="1" parent="1">
          <mxGeometry x="-204.5" y="220" width="50" height="50" as="geometry">
            <mxPoint x="240.0000000000001" y="370" as="sourcePoint" />
            <mxPoint x="240.5" y="390.0000000000001" as="targetPoint" />
            <Array as="points">
              <mxPoint x="240.5" y="380" />
            </Array>
          </mxGeometry>
        </mxCell>
        <mxCell id="w90_zhHVsFdHdV3SLVgs-120" value="" style="endArrow=classic;html=1;" edge="1" parent="1">
          <mxGeometry x="-126.68" y="220" width="50" height="50" as="geometry">
            <mxPoint x="317.8200000000001" y="370" as="sourcePoint" />
            <mxPoint x="318.32" y="390.0000000000001" as="targetPoint" />
            <Array as="points">
              <mxPoint x="318.32" y="380" />
            </Array>
          </mxGeometry>
        </mxCell>
        <mxCell id="w90_zhHVsFdHdV3SLVgs-121" value="" style="endArrow=classic;html=1;" edge="1" parent="1">
          <mxGeometry x="-38.09" y="220" width="50" height="50" as="geometry">
            <mxPoint x="406.4100000000001" y="370" as="sourcePoint" />
            <mxPoint x="407" y="380" as="targetPoint" />
            <Array as="points">
              <mxPoint x="406.90999999999997" y="380" />
            </Array>
          </mxGeometry>
        </mxCell>
        <mxCell id="w90_zhHVsFdHdV3SLVgs-122" value="" style="endArrow=classic;html=1;" edge="1" parent="1">
          <mxGeometry x="63.5" y="220" width="50" height="50" as="geometry">
            <mxPoint x="508.0000000000001" y="370" as="sourcePoint" />
            <mxPoint x="508.5" y="390.0000000000001" as="targetPoint" />
            <Array as="points">
              <mxPoint x="508.5" y="380" />
            </Array>
          </mxGeometry>
        </mxCell>
        <mxCell id="w90_zhHVsFdHdV3SLVgs-123" value="" style="endArrow=classic;html=1;" edge="1" parent="1">
          <mxGeometry x="155.5" y="220" width="50" height="50" as="geometry">
            <mxPoint x="600.0000000000001" y="370" as="sourcePoint" />
            <mxPoint x="600.5" y="390.0000000000001" as="targetPoint" />
            <Array as="points">
              <mxPoint x="600.5" y="380" />
            </Array>
          </mxGeometry>
        </mxCell>
        <mxCell id="w90_zhHVsFdHdV3SLVgs-124" value="" style="endArrow=classic;html=1;" edge="1" parent="1">
          <mxGeometry x="245.5" y="220" width="50" height="50" as="geometry">
            <mxPoint x="690.0000000000001" y="370" as="sourcePoint" />
            <mxPoint x="690.5" y="390.0000000000001" as="targetPoint" />
            <Array as="points">
              <mxPoint x="690.5" y="380" />
            </Array>
          </mxGeometry>
        </mxCell>
        <mxCell id="w90_zhHVsFdHdV3SLVgs-125" value="" style="endArrow=classic;html=1;" edge="1" parent="1">
          <mxGeometry x="345.5" y="220" width="50" height="50" as="geometry">
            <mxPoint x="790.0000000000001" y="370" as="sourcePoint" />
            <mxPoint x="790.5" y="390.0000000000001" as="targetPoint" />
            <Array as="points">
              <mxPoint x="790.5" y="380" />
            </Array>
          </mxGeometry>
        </mxCell>
        <mxCell id="w90_zhHVsFdHdV3SLVgs-127" value="&lt;font style=&quot;font-size: 10px&quot;&gt;Create Regular Trip&lt;/font&gt;" style="ellipse;whiteSpace=wrap;html=1;strokeColor=#000000;" vertex="1" parent="1">
          <mxGeometry x="10" y="390" width="60" height="40" as="geometry" />
        </mxCell>
        <mxCell id="w90_zhHVsFdHdV3SLVgs-128" value="&lt;font style=&quot;font-size: 10px&quot;&gt;Arrange Schedule&lt;/font&gt;" style="ellipse;whiteSpace=wrap;html=1;strokeColor=#000000;" vertex="1" parent="1">
          <mxGeometry x="79" y="390" width="51" height="40" as="geometry" />
        </mxCell>
        <mxCell id="w90_zhHVsFdHdV3SLVgs-129" value="&lt;font style=&quot;font-size: 10px&quot;&gt;Appoint Driver&lt;/font&gt;" style="ellipse;whiteSpace=wrap;html=1;strokeColor=#000000;" vertex="1" parent="1">
          <mxGeometry x="139" y="390" width="51" height="40" as="geometry" />
        </mxCell>
        <mxCell id="w90_zhHVsFdHdV3SLVgs-130" value="&lt;font style=&quot;font-size: 10px&quot;&gt;Manage Transport &amp;amp; Driver&lt;/font&gt;" style="ellipse;whiteSpace=wrap;html=1;strokeColor=#000000;" vertex="1" parent="1">
          <mxGeometry x="200" y="390" width="80" height="40" as="geometry" />
        </mxCell>
        <mxCell id="w90_zhHVsFdHdV3SLVgs-131" value="&lt;font style=&quot;font-size: 10px&quot;&gt;Office Employee List&lt;/font&gt;" style="ellipse;whiteSpace=wrap;html=1;strokeColor=#000000;" vertex="1" parent="1">
          <mxGeometry x="284.5" y="390" width="75.5" height="40" as="geometry" />
        </mxCell>
        <mxCell id="w90_zhHVsFdHdV3SLVgs-132" value="&lt;font style=&quot;font-size: 10px&quot;&gt;See Urgent Trip Request&lt;/font&gt;" style="ellipse;whiteSpace=wrap;html=1;strokeColor=#000000;" vertex="1" parent="1">
          <mxGeometry x="367" y="380" width="80" height="50" as="geometry" />
        </mxCell>
        <mxCell id="w90_zhHVsFdHdV3SLVgs-133" value="&lt;font style=&quot;font-size: 10px&quot;&gt;Fuel Cost Calculation&lt;/font&gt;" style="ellipse;whiteSpace=wrap;html=1;strokeColor=#000000;" vertex="1" parent="1">
          <mxGeometry x="478" y="390" width="62" height="40" as="geometry" />
        </mxCell>
        <mxCell id="w90_zhHVsFdHdV3SLVgs-134" value="&lt;font style=&quot;font-size: 10px&quot;&gt;View Account&lt;/font&gt;" style="ellipse;whiteSpace=wrap;html=1;strokeColor=#000000;" vertex="1" parent="1">
          <mxGeometry x="580" y="390" width="51" height="40" as="geometry" />
        </mxCell>
        <mxCell id="w90_zhHVsFdHdV3SLVgs-136" value="&lt;font style=&quot;font-size: 10px&quot;&gt;Generate Reports&lt;/font&gt;" style="ellipse;whiteSpace=wrap;html=1;strokeColor=#000000;" vertex="1" parent="1">
          <mxGeometry x="670" y="390" width="51" height="40" as="geometry" />
        </mxCell>
        <mxCell id="w90_zhHVsFdHdV3SLVgs-137" value="&lt;font style=&quot;font-size: 10px&quot;&gt;See Review&lt;/font&gt;" style="ellipse;whiteSpace=wrap;html=1;strokeColor=#000000;" vertex="1" parent="1">
          <mxGeometry x="770" y="390" width="51" height="40" as="geometry" />
        </mxCell>
        <mxCell id="w90_zhHVsFdHdV3SLVgs-139" value="" style="endArrow=classic;html=1;" edge="1" parent="1">
          <mxGeometry x="-96.42" y="195" width="50" height="50" as="geometry">
            <mxPoint x="348.08000000000015" y="345" as="sourcePoint" />
            <mxPoint x="348.5799999999999" y="365.0000000000001" as="targetPoint" />
            <Array as="points">
              <mxPoint x="348.58" y="355" />
            </Array>
          </mxGeometry>
        </mxCell>
        <mxCell id="w90_zhHVsFdHdV3SLVgs-141" value="" style="endArrow=classic;html=1;strokeColor=#000000;exitX=0.5;exitY=1;exitDx=0;exitDy=0;" edge="1" parent="1" source="w90_zhHVsFdHdV3SLVgs-127">
          <mxGeometry width="50" height="50" relative="1" as="geometry">
            <mxPoint x="360" y="420" as="sourcePoint" />
            <mxPoint x="40" y="450" as="targetPoint" />
          </mxGeometry>
        </mxCell>
        <mxCell id="w90_zhHVsFdHdV3SLVgs-142" value="" style="shape=line;html=1;strokeWidth=6;" vertex="1" parent="1">
          <mxGeometry x="40" y="450" width="200" height="10" as="geometry" />
        </mxCell>
        <mxCell id="w90_zhHVsFdHdV3SLVgs-143" value="" style="endArrow=classic;html=1;strokeColor=#000000;exitX=0.5;exitY=1;exitDx=0;exitDy=0;" edge="1" parent="1">
          <mxGeometry width="50" height="50" relative="1" as="geometry">
            <mxPoint x="104.08" y="430" as="sourcePoint" />
            <mxPoint x="104.08" y="450" as="targetPoint" />
          </mxGeometry>
        </mxCell>
        <mxCell id="w90_zhHVsFdHdV3SLVgs-144" value="" style="endArrow=classic;html=1;strokeColor=#000000;exitX=0.5;exitY=1;exitDx=0;exitDy=0;" edge="1" parent="1">
          <mxGeometry width="50" height="50" relative="1" as="geometry">
            <mxPoint x="164.07999999999998" y="430" as="sourcePoint" />
            <mxPoint x="164.07999999999998" y="450" as="targetPoint" />
          </mxGeometry>
        </mxCell>
        <mxCell id="w90_zhHVsFdHdV3SLVgs-145" value="" style="endArrow=classic;html=1;strokeColor=#000000;exitX=0.5;exitY=1;exitDx=0;exitDy=0;" edge="1" parent="1">
          <mxGeometry width="50" height="50" relative="1" as="geometry">
            <mxPoint x="240" y="430" as="sourcePoint" />
            <mxPoint x="240" y="450" as="targetPoint" />
          </mxGeometry>
        </mxCell>
        <mxCell id="w90_zhHVsFdHdV3SLVgs-146" value="" style="endArrow=classic;html=1;strokeColor=#000000;exitX=0.5;exitY=1;exitDx=0;exitDy=0;" edge="1" parent="1">
          <mxGeometry width="50" height="50" relative="1" as="geometry">
            <mxPoint x="40" y="460" as="sourcePoint" />
            <mxPoint x="40" y="480" as="targetPoint" />
          </mxGeometry>
        </mxCell>
        <mxCell id="w90_zhHVsFdHdV3SLVgs-147" value="Insert Info" style="ellipse;whiteSpace=wrap;html=1;strokeColor=#000000;" vertex="1" parent="1">
          <mxGeometry x="15" y="480" width="50" height="30" as="geometry" />
        </mxCell>
        <mxCell id="w90_zhHVsFdHdV3SLVgs-149" value="" style="endArrow=classic;html=1;strokeColor=#000000;exitX=0.5;exitY=1;exitDx=0;exitDy=0;" edge="1" parent="1">
          <mxGeometry width="50" height="50" relative="1" as="geometry">
            <mxPoint x="130" y="460" as="sourcePoint" />
            <mxPoint x="130" y="480" as="targetPoint" />
          </mxGeometry>
        </mxCell>
        <mxCell id="w90_zhHVsFdHdV3SLVgs-150" value="" style="endArrow=classic;html=1;strokeColor=#000000;exitX=0.5;exitY=1;exitDx=0;exitDy=0;" edge="1" parent="1">
          <mxGeometry width="50" height="50" relative="1" as="geometry">
            <mxPoint x="239.58" y="460" as="sourcePoint" />
            <mxPoint x="239.58" y="480" as="targetPoint" />
          </mxGeometry>
        </mxCell>
        <mxCell id="w90_zhHVsFdHdV3SLVgs-151" value="Update Info" style="ellipse;whiteSpace=wrap;html=1;strokeColor=#000000;" vertex="1" parent="1">
          <mxGeometry x="99" y="480" width="50" height="30" as="geometry" />
        </mxCell>
        <mxCell id="w90_zhHVsFdHdV3SLVgs-152" value="Delete" style="ellipse;whiteSpace=wrap;html=1;strokeColor=#000000;" vertex="1" parent="1">
          <mxGeometry x="215" y="480" width="50" height="30" as="geometry" />
        </mxCell>
        <mxCell id="w90_zhHVsFdHdV3SLVgs-153" value="" style="shape=line;html=1;strokeWidth=6;" vertex="1" parent="1">
          <mxGeometry x="40" y="530" width="200" height="10" as="geometry" />
        </mxCell>
        <mxCell id="w90_zhHVsFdHdV3SLVgs-154" value="" style="endArrow=classic;html=1;strokeColor=#000000;exitX=0.5;exitY=1;exitDx=0;exitDy=0;" edge="1" parent="1">
          <mxGeometry width="50" height="50" relative="1" as="geometry">
            <mxPoint x="39" y="510" as="sourcePoint" />
            <mxPoint x="39" y="530" as="targetPoint" />
          </mxGeometry>
        </mxCell>
        <mxCell id="w90_zhHVsFdHdV3SLVgs-155" value="" style="endArrow=classic;html=1;strokeColor=#000000;exitX=0.5;exitY=1;exitDx=0;exitDy=0;" edge="1" parent="1">
          <mxGeometry width="50" height="50" relative="1" as="geometry">
            <mxPoint x="123.58" y="510" as="sourcePoint" />
            <mxPoint x="123.58" y="530" as="targetPoint" />
          </mxGeometry>
        </mxCell>
        <mxCell id="w90_zhHVsFdHdV3SLVgs-156" value="" style="endArrow=classic;html=1;strokeColor=#000000;exitX=0.5;exitY=1;exitDx=0;exitDy=0;" edge="1" parent="1">
          <mxGeometry width="50" height="50" relative="1" as="geometry">
            <mxPoint x="239.58" y="510" as="sourcePoint" />
            <mxPoint x="239.58" y="530" as="targetPoint" />
          </mxGeometry>
        </mxCell>
        <mxCell id="w90_zhHVsFdHdV3SLVgs-157" value="" style="endArrow=classic;html=1;strokeColor=#000000;" edge="1" parent="1">
          <mxGeometry width="50" height="50" relative="1" as="geometry">
            <mxPoint x="152" y="537" as="sourcePoint" />
            <mxPoint x="20" y="1120" as="targetPoint" />
            <Array as="points">
              <mxPoint x="152" y="560" />
              <mxPoint x="20" y="560" />
            </Array>
          </mxGeometry>
        </mxCell>
        <mxCell id="w90_zhHVsFdHdV3SLVgs-158" value="" style="endArrow=classic;html=1;strokeColor=#000000;exitX=0.5;exitY=1;exitDx=0;exitDy=0;" edge="1" parent="1">
          <mxGeometry width="50" height="50" relative="1" as="geometry">
            <mxPoint x="330" y="430" as="sourcePoint" />
            <mxPoint x="330" y="450" as="targetPoint" />
          </mxGeometry>
        </mxCell>
        <mxCell id="w90_zhHVsFdHdV3SLVgs-159" value="See Info" style="ellipse;whiteSpace=wrap;html=1;strokeColor=#000000;" vertex="1" parent="1">
          <mxGeometry x="310" y="450" width="50" height="30" as="geometry" />
        </mxCell>
        <mxCell id="w90_zhHVsFdHdV3SLVgs-161" value="" style="endArrow=classic;html=1;strokeColor=#000000;exitX=0.5;exitY=1;exitDx=0;exitDy=0;" edge="1" parent="1">
          <mxGeometry width="50" height="50" relative="1" as="geometry">
            <mxPoint x="334.58000000000004" y="480" as="sourcePoint" />
            <mxPoint x="30" y="1123" as="targetPoint" />
            <Array as="points">
              <mxPoint x="335" y="570" />
              <mxPoint x="30" y="570" />
            </Array>
          </mxGeometry>
        </mxCell>
        <mxCell id="w90_zhHVsFdHdV3SLVgs-162" value="" style="endArrow=classic;html=1;strokeColor=#000000;exitX=0.5;exitY=1;exitDx=0;exitDy=0;" edge="1" parent="1">
          <mxGeometry width="50" height="50" relative="1" as="geometry">
            <mxPoint x="406.58" y="430" as="sourcePoint" />
            <mxPoint x="406.58" y="450" as="targetPoint" />
          </mxGeometry>
        </mxCell>
        <mxCell id="w90_zhHVsFdHdV3SLVgs-163" value="&lt;font style=&quot;font-size: 10px&quot;&gt;Time&lt;/font&gt;" style="ellipse;whiteSpace=wrap;html=1;strokeColor=#000000;" vertex="1" parent="1">
          <mxGeometry x="380" y="450" width="50" height="30" as="geometry" />
        </mxCell>
        <mxCell id="w90_zhHVsFdHdV3SLVgs-164" value="Location" style="ellipse;whiteSpace=wrap;html=1;strokeColor=#000000;" vertex="1" parent="1">
          <mxGeometry x="433" y="450" width="50" height="30" as="geometry" />
        </mxCell>
        <mxCell id="w90_zhHVsFdHdV3SLVgs-166" value="&lt;font style=&quot;font-size: 10px&quot;&gt;View Previous Trip&lt;/font&gt;" style="ellipse;whiteSpace=wrap;html=1;strokeColor=#000000;" vertex="1" parent="1">
          <mxGeometry x="367" y="500" width="100" height="20" as="geometry" />
        </mxCell>
        <mxCell id="w90_zhHVsFdHdV3SLVgs-167" value="" style="endArrow=classic;html=1;strokeColor=#000000;exitX=0.5;exitY=1;exitDx=0;exitDy=0;entryX=0;entryY=0;entryDx=0;entryDy=0;" edge="1" parent="1" target="w90_zhHVsFdHdV3SLVgs-164">
          <mxGeometry width="50" height="50" relative="1" as="geometry">
            <mxPoint x="406.58" y="430" as="sourcePoint" />
            <mxPoint x="406.58" y="450" as="targetPoint" />
          </mxGeometry>
        </mxCell>
        <mxCell id="w90_zhHVsFdHdV3SLVgs-168" value="" style="endArrow=classic;html=1;strokeColor=#000000;exitX=0.5;exitY=1;exitDx=0;exitDy=0;entryX=0;entryY=0;entryDx=0;entryDy=0;" edge="1" parent="1" target="w90_zhHVsFdHdV3SLVgs-166">
          <mxGeometry width="50" height="50" relative="1" as="geometry">
            <mxPoint x="406.58" y="430" as="sourcePoint" />
            <mxPoint x="406.58" y="450" as="targetPoint" />
            <Array as="points">
              <mxPoint x="370" y="460" />
            </Array>
          </mxGeometry>
        </mxCell>
        <mxCell id="w90_zhHVsFdHdV3SLVgs-170" value="" style="endArrow=classic;html=1;strokeColor=#000000;exitX=0.5;exitY=1;exitDx=0;exitDy=0;" edge="1" parent="1">
          <mxGeometry width="50" height="50" relative="1" as="geometry">
            <mxPoint x="406.58" y="480" as="sourcePoint" />
            <mxPoint x="500" y="510" as="targetPoint" />
          </mxGeometry>
        </mxCell>
        <mxCell id="w90_zhHVsFdHdV3SLVgs-171" value="" style="endArrow=classic;html=1;strokeColor=#000000;exitX=0.5;exitY=1;exitDx=0;exitDy=0;" edge="1" parent="1">
          <mxGeometry width="50" height="50" relative="1" as="geometry">
            <mxPoint x="472.08" y="480" as="sourcePoint" />
            <mxPoint x="500" y="510" as="targetPoint" />
          </mxGeometry>
        </mxCell>
        <mxCell id="w90_zhHVsFdHdV3SLVgs-172" value="" style="endArrow=classic;html=1;strokeColor=#000000;exitX=0.5;exitY=1;exitDx=0;exitDy=0;" edge="1" parent="1">
          <mxGeometry width="50" height="50" relative="1" as="geometry">
            <mxPoint x="467" y="510" as="sourcePoint" />
            <mxPoint x="500" y="510" as="targetPoint" />
          </mxGeometry>
        </mxCell>
        <mxCell id="w90_zhHVsFdHdV3SLVgs-173" value="&lt;font style=&quot;font-size: 10px&quot;&gt;Check Driver Availability&lt;/font&gt;" style="ellipse;whiteSpace=wrap;html=1;strokeColor=#000000;" vertex="1" parent="1">
          <mxGeometry x="500" y="495" width="80" height="30" as="geometry" />
        </mxCell>
        <mxCell id="w90_zhHVsFdHdV3SLVgs-174" value="" style="endArrow=classic;html=1;strokeColor=#000000;exitX=0.5;exitY=1;exitDx=0;exitDy=0;entryX=1;entryY=0.5;entryDx=0;entryDy=0;" edge="1" parent="1" target="w90_zhHVsFdHdV3SLVgs-176">
          <mxGeometry width="50" height="50" relative="1" as="geometry">
            <mxPoint x="520" y="525" as="sourcePoint" />
            <mxPoint x="420" y="550" as="targetPoint" />
          </mxGeometry>
        </mxCell>
        <mxCell id="w90_zhHVsFdHdV3SLVgs-176" value="Is Available" style="rhombus;whiteSpace=wrap;html=1;strokeColor=#000000;" vertex="1" parent="1">
          <mxGeometry x="351" y="560" width="74" height="50" as="geometry" />
        </mxCell>
        <mxCell id="w90_zhHVsFdHdV3SLVgs-177" value="" style="endArrow=classic;html=1;strokeColor=#000000;" edge="1" parent="1">
          <mxGeometry width="50" height="50" relative="1" as="geometry">
            <mxPoint x="350" y="590" as="sourcePoint" />
            <mxPoint x="300" y="590" as="targetPoint" />
          </mxGeometry>
        </mxCell>
        <mxCell id="w90_zhHVsFdHdV3SLVgs-178" value="Yes" style="text;html=1;align=center;verticalAlign=middle;resizable=0;points=[];autosize=1;strokeColor=none;" vertex="1" parent="1">
          <mxGeometry x="315" y="570" width="30" height="20" as="geometry" />
        </mxCell>
        <mxCell id="w90_zhHVsFdHdV3SLVgs-179" value="" style="endArrow=classic;html=1;strokeColor=#000000;exitX=0.5;exitY=1;exitDx=0;exitDy=0;" edge="1" parent="1" source="w90_zhHVsFdHdV3SLVgs-176">
          <mxGeometry width="50" height="50" relative="1" as="geometry">
            <mxPoint x="270" y="670" as="sourcePoint" />
            <mxPoint x="300" y="640" as="targetPoint" />
          </mxGeometry>
        </mxCell>
        <mxCell id="w90_zhHVsFdHdV3SLVgs-180" value="No" style="text;html=1;align=center;verticalAlign=middle;resizable=0;points=[];autosize=1;strokeColor=none;" vertex="1" parent="1">
          <mxGeometry x="315" y="610" width="30" height="20" as="geometry" />
        </mxCell>
        <mxCell id="w90_zhHVsFdHdV3SLVgs-181" value="Send Massage Request Accepted" style="ellipse;whiteSpace=wrap;html=1;strokeColor=#000000;" vertex="1" parent="1">
          <mxGeometry x="180" y="580" width="120" height="30" as="geometry" />
        </mxCell>
        <mxCell id="w90_zhHVsFdHdV3SLVgs-182" value="Send Massage Request Not Accepted" style="ellipse;whiteSpace=wrap;html=1;strokeColor=#000000;" vertex="1" parent="1">
          <mxGeometry x="170" y="620" width="130" height="40" as="geometry" />
        </mxCell>
        <mxCell id="w90_zhHVsFdHdV3SLVgs-184" value="Transport No" style="ellipse;whiteSpace=wrap;html=1;strokeColor=#000000;" vertex="1" parent="1">
          <mxGeometry x="90" y="580" width="60" height="30" as="geometry" />
        </mxCell>
        <mxCell id="w90_zhHVsFdHdV3SLVgs-185" value="Location" style="ellipse;whiteSpace=wrap;html=1;strokeColor=#000000;" vertex="1" parent="1">
          <mxGeometry x="90" y="625" width="60" height="30" as="geometry" />
        </mxCell>
        <mxCell id="w90_zhHVsFdHdV3SLVgs-187" value="" style="endArrow=none;html=1;strokeColor=#000000;entryX=1;entryY=0.5;entryDx=0;entryDy=0;exitX=1;exitY=0.5;exitDx=0;exitDy=0;" edge="1" parent="1" source="w90_zhHVsFdHdV3SLVgs-185" target="w90_zhHVsFdHdV3SLVgs-184">
          <mxGeometry width="50" height="50" relative="1" as="geometry">
            <mxPoint x="270" y="660" as="sourcePoint" />
            <mxPoint x="320" y="610" as="targetPoint" />
            <Array as="points">
              <mxPoint x="160" y="640" />
              <mxPoint x="160" y="595" />
            </Array>
          </mxGeometry>
        </mxCell>
        <mxCell id="w90_zhHVsFdHdV3SLVgs-188" value="" style="endArrow=classic;html=1;strokeColor=#000000;exitX=0.042;exitY=0.711;exitDx=0;exitDy=0;exitPerimeter=0;" edge="1" parent="1" source="w90_zhHVsFdHdV3SLVgs-181">
          <mxGeometry width="50" height="50" relative="1" as="geometry">
            <mxPoint x="270" y="660" as="sourcePoint" />
            <mxPoint x="160" y="620" as="targetPoint" />
          </mxGeometry>
        </mxCell>
        <mxCell id="w90_zhHVsFdHdV3SLVgs-190" value="" style="endArrow=none;html=1;strokeColor=#000000;exitX=0;exitY=0.5;exitDx=0;exitDy=0;entryX=0;entryY=0.5;entryDx=0;entryDy=0;" edge="1" parent="1" source="w90_zhHVsFdHdV3SLVgs-184" target="w90_zhHVsFdHdV3SLVgs-185">
          <mxGeometry width="50" height="50" relative="1" as="geometry">
            <mxPoint x="270" y="660" as="sourcePoint" />
            <mxPoint x="320" y="610" as="targetPoint" />
            <Array as="points">
              <mxPoint x="70" y="595" />
              <mxPoint x="70" y="640" />
            </Array>
          </mxGeometry>
        </mxCell>
        <mxCell id="w90_zhHVsFdHdV3SLVgs-191" value="" style="endArrow=classic;html=1;strokeColor=#000000;" edge="1" parent="1">
          <mxGeometry width="50" height="50" relative="1" as="geometry">
            <mxPoint x="70" y="620" as="sourcePoint" />
            <mxPoint x="40" y="1123" as="targetPoint" />
            <Array as="points">
              <mxPoint x="40" y="620" />
            </Array>
          </mxGeometry>
        </mxCell>
        <mxCell id="w90_zhHVsFdHdV3SLVgs-192" value="" style="endArrow=classic;html=1;strokeColor=#000000;exitX=0;exitY=1;exitDx=0;exitDy=0;" edge="1" parent="1" source="w90_zhHVsFdHdV3SLVgs-182">
          <mxGeometry width="50" height="50" relative="1" as="geometry">
            <mxPoint x="175.72000000000003" y="657.6800000000001" as="sourcePoint" />
            <mxPoint x="40" y="667" as="targetPoint" />
          </mxGeometry>
        </mxCell>
      </root>
    </mxGraphModel>
  </diagram>
</mxfile>
